<?xml version="1.0" standalone="no"?>
<!DOCTYPE svg PUBLIC "-//W3C//DTD SVG 20010904//EN"
 "http://www.w3.org/TR/2001/REC-SVG-20010904/DTD/svg10.dtd">
<svg version="1.0" xmlns="http://www.w3.org/2000/svg"
 width="1024.000000pt" height="1024.000000pt" viewBox="0 0 1024.000000 1024.000000"
 preserveAspectRatio="xMidYMid meet">

<g transform="translate(0.000000,1024.000000) scale(0.100000,-0.100000)"
fill="#000000" stroke="none">
<path d="M2300 10169 c-118 -5 -229 -13 -246 -19 -17 -5 -51 -10 -77 -10 -25
0 -58 -5 -74 -11 -25 -10 -66 -18 -173 -36 -19 -3 -40 -9 -45 -14 -6 -4 -30
-11 -53 -15 -23 -4 -45 -11 -48 -15 -3 -5 -14 -9 -24 -9 -17 0 -66 -18 -112
-41 -10 -5 -26 -9 -35 -9 -10 0 -27 -7 -37 -15 -11 -8 -28 -15 -38 -15 -10 0
-18 -4 -18 -10 0 -5 -7 -10 -15 -10 -13 0 -92 -39 -210 -105 -82 -46 -204
-134 -311 -227 -95 -82 -247 -242 -282 -298 -9 -14 -31 -43 -49 -66 -18 -23
-33 -45 -33 -49 0 -5 -6 -16 -14 -24 -20 -23 -67 -108 -132 -241 -31 -63 -60
-123 -65 -132 -5 -10 -9 -27 -9 -37 0 -11 -4 -23 -10 -26 -5 -3 -10 -16 -10
-29 0 -12 -7 -31 -15 -42 -8 -10 -15 -31 -15 -46 0 -15 -5 -30 -10 -33 -6 -3
-10 -17 -10 -31 0 -14 -5 -35 -12 -47 -11 -21 -19 -58 -37 -179 -5 -31 -12
-61 -15 -67 -14 -21 -29 -203 -33 -396 -5 -193 7 -5389 12 -5383 3 4 15 1115
16 1573 1 209 5 367 9 350 4 -16 8 -74 9 -127 1 -58 5 -98 11 -98 6 0 10 -7
10 -15 0 -8 -4 -15 -10 -15 -5 0 -10 -11 -10 -25 0 -18 5 -25 20 -25 11 0 20
7 20 15 0 9 9 15 25 15 14 0 25 6 25 13 0 17 43 43 48 28 5 -14 52 -15 52 -1
0 6 7 10 15 10 8 0 15 -4 15 -10 0 -5 -7 -10 -15 -10 -20 0 -19 -16 1 -24 28
-11 54 -6 54 9 0 8 7 15 15 15 8 0 15 -7 15 -15 0 -8 5 -15 10 -15 6 0 10 7
10 15 0 8 7 15 15 15 8 0 15 -7 15 -15 0 -17 17 -20 22 -4 6 17 89 24 99 8 6
-10 11 -11 16 -3 10 14 68 25 88 18 8 -4 15 -12 15 -20 0 -9 12 -14 35 -14 31
0 35 3 35 25 0 16 6 25 15 25 8 0 15 -4 15 -10 0 -5 9 -10 20 -10 11 0 20 -7
20 -15 0 -8 -4 -15 -10 -15 -5 0 -10 -4 -10 -10 0 -14 27 -12 34 3 5 9 7 9 12
0 3 -7 10 -13 16 -13 13 0 38 26 38 39 0 6 5 11 10 11 6 0 10 -7 10 -15 0 -8
-4 -15 -10 -15 -5 0 -10 -7 -10 -15 0 -8 7 -15 15 -15 8 0 15 7 15 15 0 8 5
15 10 15 6 0 10 5 10 11 0 14 25 39 39 39 6 0 11 -4 11 -10 0 -5 -4 -10 -10
-10 -5 0 -10 -7 -10 -15 0 -12 13 -15 55 -15 30 0 55 5 55 10 0 6 7 10 15 10
8 0 15 -4 15 -10 0 -5 9 -10 20 -10 11 0 20 -4 20 -10 0 -15 27 -12 33 4 4 10
18 12 51 9 38 -5 46 -3 46 11 0 10 9 16 25 16 20 0 25 5 25 25 0 16 6 25 15
25 9 0 15 -9 15 -25 0 -16 -6 -25 -15 -25 -8 0 -15 -7 -15 -15 0 -8 -7 -15
-15 -15 -8 0 -15 -4 -15 -10 0 -5 7 -10 15 -10 8 0 15 5 15 10 0 12 67 13 72
1 2 -4 13 -12 26 -15 16 -6 22 -3 22 8 0 9 -4 16 -10 16 -5 0 -10 7 -10 16 0
11 6 14 23 8 12 -3 23 -11 25 -15 5 -12 92 -11 92 1 0 6 11 10 25 10 14 0 25
-4 25 -10 0 -5 7 -10 15 -10 9 0 15 9 15 25 0 14 5 25 10 25 6 0 10 -9 10 -21
0 -22 22 -49 39 -49 6 0 11 5 11 10 0 6 7 10 15 10 8 0 15 -7 15 -15 0 -8 5
-15 10 -15 6 0 10 7 10 15 0 8 -4 15 -10 15 -15 0 -12 19 4 36 20 19 56 18 56
-2 0 -12 -6 -15 -25 -10 -18 5 -25 2 -25 -9 0 -8 5 -15 10 -15 6 0 10 -7 10
-15 0 -8 7 -15 15 -15 8 0 15 5 15 11 0 14 25 39 39 39 6 0 11 -4 11 -10 0 -5
5 -10 10 -10 6 0 10 7 10 15 0 8 7 15 15 15 8 0 15 -7 15 -15 0 -8 5 -15 10
-15 6 0 10 7 10 15 0 11 12 15 50 15 38 0 50 -4 50 -15 0 -8 7 -15 15 -15 8 0
15 7 15 15 0 12 7 14 28 9 15 -4 29 -11 30 -16 6 -14 32 -9 32 7 0 8 7 15 16
15 12 0 14 -7 9 -30 -5 -23 -3 -30 9 -30 9 0 16 7 16 15 0 9 9 15 25 15 20 0
25 5 25 25 0 14 3 25 6 25 12 0 33 -29 40 -54 9 -36 24 -33 24 5 0 28 2 31 25
25 18 -5 25 -2 25 9 0 19 17 19 36 0 20 -19 34 -19 34 0 0 25 40 17 71 -14 16
-16 29 -35 29 -41 0 -15 22 -8 28 8 2 7 -3 12 -12 12 -9 0 -16 7 -16 15 0 8 7
15 15 15 8 0 15 -7 15 -15 0 -8 5 -15 10 -15 6 0 10 -7 10 -15 0 -8 7 -15 15
-15 19 0 19 24 0 44 -22 22 -18 36 10 36 20 0 25 -5 25 -25 0 -14 5 -25 10
-25 6 0 10 -7 10 -15 0 -9 9 -15 24 -15 26 0 41 34 30 64 -8 20 13 21 32 1 10
-9 24 -13 40 -9 18 5 24 2 24 -10 0 -9 -7 -16 -15 -16 -8 0 -15 -7 -15 -15 0
-8 7 -15 15 -15 8 0 15 7 15 15 0 8 7 15 15 15 8 0 15 -4 15 -10 0 -5 9 -10
20 -10 11 0 20 5 20 10 0 6 11 10 25 10 15 0 25 6 25 14 0 10 12 14 40 13 39
-2 40 -3 34 -29 -4 -21 -2 -28 10 -28 9 0 16 7 16 15 0 9 9 15 24 15 13 0 26
4 28 9 2 4 13 12 26 15 16 6 22 3 22 -8 0 -9 7 -16 16 -16 12 0 15 6 10 25 -7
28 0 31 27 11 21 -16 23 -40 2 -32 -9 3 -15 0 -15 -9 0 -8 7 -15 15 -15 8 0
15 5 15 10 0 6 6 10 14 10 8 0 16 5 18 11 2 6 27 13 55 15 l51 3 7 -46 c4 -25
15 -55 26 -66 10 -11 19 -24 19 -29 0 -13 -18 -9 -23 5 -2 7 -8 8 -13 3 -5 -5
-4 -11 4 -13 6 -3 12 -11 12 -19 0 -8 5 -14 11 -14 14 0 39 -25 39 -39 0 -6
-4 -11 -10 -11 -5 0 -10 -11 -10 -25 0 -14 3 -25 8 -25 16 0 42 -64 42 -105 0
-38 2 -43 20 -38 16 4 20 0 20 -20 0 -17 7 -28 19 -32 16 -5 19 -12 14 -42 -4
-25 -3 -34 5 -29 7 4 13 -9 17 -37 5 -29 16 -53 35 -71 24 -22 28 -32 23 -60
-5 -29 -2 -34 26 -46 29 -12 44 -40 21 -40 -5 0 -10 -7 -10 -15 0 -9 6 -12 15
-9 9 4 15 0 15 -10 0 -9 4 -16 9 -16 5 0 11 -9 14 -20 3 -12 14 -20 26 -20 12
0 21 -6 21 -15 0 -9 9 -15 24 -15 13 0 26 -7 30 -15 3 -8 12 -12 21 -9 8 4 17
-1 21 -10 8 -20 53 -21 100 -1 20 8 48 12 64 8 23 -4 30 -2 30 10 0 24 22 35
83 40 64 6 79 13 57 27 -8 5 -11 12 -7 17 5 4 12 1 17 -7 8 -13 11 -12 23 4
11 15 22 18 52 13 35 -6 41 -3 76 36 21 23 51 55 66 71 19 19 24 30 16 33 -21
8 -15 33 7 33 15 0 20 7 20 24 0 14 8 32 17 42 13 13 14 19 5 22 -14 4 -16 32
-2 32 6 0 10 7 10 15 0 8 -4 15 -10 15 -5 0 -10 11 -10 25 0 14 4 25 9 25 5 0
13 10 17 23 4 12 11 25 16 28 4 3 1 22 -7 43 -13 31 -14 43 -4 71 10 26 10 37
1 48 -13 16 -6 47 10 47 6 0 8 17 4 45 -6 38 -5 44 8 39 9 -3 16 -10 16 -15 0
-5 5 -9 10 -9 6 0 10 7 10 15 0 8 -4 15 -10 15 -5 0 -10 9 -10 20 0 11 7 20
15 20 8 0 15 7 15 15 0 8 -7 15 -15 15 -19 0 -20 34 0 50 8 6 23 9 35 5 11 -4
20 -2 20 4 0 6 7 11 15 11 8 0 15 -7 15 -15 0 -8 -7 -15 -15 -15 -8 0 -15 -4
-15 -10 0 -5 11 -10 25 -10 16 0 25 6 25 16 0 12 6 15 20 10 11 -3 29 -9 40
-12 16 -5 20 -2 20 15 0 12 6 21 15 21 11 0 14 -7 9 -25 -5 -21 -3 -24 11 -19
14 6 16 2 9 -32 -3 -22 -11 -45 -17 -51 -7 -9 -5 -13 7 -13 9 0 16 5 16 10 0
6 5 10 10 10 6 0 10 -7 10 -15 0 -8 -4 -15 -10 -15 -5 0 -10 -9 -10 -20 0 -11
5 -20 10 -20 6 0 10 -7 10 -15 0 -8 -4 -15 -10 -15 -5 0 -10 -7 -10 -15 0 -8
5 -15 10 -15 6 0 10 -12 10 -26 0 -46 20 -14 21 34 l1 47 9 -55 c7 -43 7 -57
-4 -65 -16 -12 -22 -211 -7 -220 12 -8 19 24 24 120 8 149 24 304 33 317 4 7
11 56 15 108 12 164 27 222 79 310 5 8 12 22 15 30 3 8 9 24 14 35 30 76 40
103 45 123 7 23 10 23 68 17 121 -14 154 -45 141 -132 -8 -56 12 -58 52 -5 61
81 121 116 200 116 61 0 77 -11 111 -77 27 -54 27 -70 4 -252 -6 -49 -15 -144
-21 -210 -15 -179 -40 -426 -46 -460 -5 -26 -13 -122 -29 -335 -2 -30 -1 -46
2 -35 3 11 9 24 14 29 5 6 9 20 9 32 0 12 7 27 15 34 8 7 15 21 15 31 0 11 5
19 10 19 6 0 10 -4 10 -10 0 -5 5 -10 11 -10 7 0 9 11 6 30 -5 21 -3 28 6 24
7 -2 17 9 24 26 11 29 13 30 80 30 l68 1 -35 15 c-61 26 -16 34 208 34 134 0
212 4 212 10 0 6 -75 10 -206 10 -184 0 -205 2 -200 16 3 9 6 25 6 35 0 12 4
17 11 13 8 -4 9 3 4 25 -4 19 -3 31 4 31 5 0 15 16 22 35 7 19 17 35 21 35 4
0 8 16 8 35 0 19 -4 35 -10 35 -5 0 -10 5 -10 10 0 6 6 10 14 10 20 0 28 15
30 59 2 40 24 71 50 71 9 0 16 7 16 16 0 8 -3 13 -8 10 -4 -2 -7 25 -7 60 0
35 3 64 8 64 12 0 67 -56 67 -69 0 -17 13 -13 32 8 9 11 15 34 15 51 -1 19 3
35 11 37 8 3 12 -6 12 -25 0 -28 2 -29 47 -28 29 1 48 -4 50 -11 7 -19 53 -16
53 2 0 8 -7 15 -15 15 -8 0 -15 5 -15 10 0 6 7 10 15 10 8 0 15 -4 15 -10 0
-5 9 -10 20 -10 11 0 20 -7 20 -15 0 -8 7 -15 15 -15 8 0 15 5 15 10 0 6 5 10
11 10 14 0 39 -25 39 -39 0 -6 11 -11 25 -11 16 0 25 6 25 15 0 9 9 15 25 15
14 0 25 5 25 11 0 14 25 39 39 39 6 0 11 -4 11 -10 0 -5 9 -10 20 -10 11 0 20
5 20 10 0 6 7 10 15 10 8 0 15 -4 15 -10 0 -5 -7 -10 -15 -10 -8 0 -15 -6 -15
-12 0 -8 16 -14 40 -16 30 -2 40 1 40 13 0 8 5 15 10 15 6 0 10 -7 10 -15 0
-8 7 -15 15 -15 8 0 15 7 15 15 0 8 5 15 10 15 6 0 10 -7 10 -15 0 -19 17 -19
36 0 17 17 84 21 84 5 0 -12 27 -13 32 -2 2 5 18 12 36 15 25 5 37 2 52 -13
11 -11 33 -20 50 -20 25 0 30 4 30 25 0 25 14 33 25 15 3 -5 15 -10 26 -10 21
0 26 -26 7 -33 -8 -2 -9 -8 -4 -13 5 -5 11 -4 13 4 3 6 11 12 18 12 7 0 16 -6
19 -12 5 -10 7 -10 12 0 8 17 34 15 34 -3 0 -8 5 -15 10 -15 6 0 10 7 10 15 0
8 7 15 15 15 8 0 15 5 15 11 0 14 25 39 39 39 6 0 11 -7 11 -15 0 -9 -6 -12
-15 -9 -9 4 -15 0 -15 -10 0 -13 12 -16 60 -16 33 0 60 4 60 10 0 6 7 10 15
10 8 0 15 -4 15 -10 0 -5 9 -10 20 -10 11 0 20 -4 20 -10 0 -14 28 -12 33 3 2
6 19 13 38 13 19 1 45 5 58 9 21 7 23 6 17 -11 -20 -47 -19 -54 7 -54 29 0 37
-16 37 -70 0 -26 -5 -40 -16 -44 -10 -4 -14 -14 -11 -26 3 -13 0 -20 -9 -20
-8 0 -14 -7 -14 -15 0 -8 -4 -15 -8 -15 -4 0 -16 -13 -25 -30 -10 -17 -16 -30
-13 -30 11 0 67 63 82 93 31 60 34 67 34 89 0 12 6 29 14 37 37 41 26 501 -14
596 -51 122 -118 215 -202 281 -31 24 -110 64 -127 64 -10 0 -21 3 -25 7 -10
11 -107 33 -191 44 -203 26 -769 32 -975 9 -47 -6 -116 -10 -155 -10 -84 0
-247 -16 -366 -36 -48 -8 -103 -14 -123 -14 -20 0 -55 -4 -78 -9 -55 -12 -149
-31 -213 -42 -27 -4 -79 -15 -115 -24 -107 -26 -153 -36 -192 -42 -34 -4 -38
-3 -38 16 0 11 -9 44 -19 72 -13 34 -17 58 -12 72 9 23 81 67 110 67 9 0 21 4
27 9 5 4 52 16 104 25 90 17 161 43 167 62 2 5 -128 9 -294 10 -286 0 -300 1
-345 23 -48 22 -78 53 -78 81 0 29 59 87 117 115 71 34 84 39 153 61 30 9 64
20 75 24 25 9 107 30 163 41 23 5 61 13 85 18 23 4 62 13 87 19 25 6 70 16
100 21 30 5 84 15 120 22 67 12 144 22 285 38 44 5 87 11 95 14 8 4 67 12 130
18 63 6 149 15 190 20 41 4 127 12 190 18 63 6 158 15 210 21 190 20 455 12
645 -22 33 -6 76 -12 95 -15 39 -5 148 -29 195 -44 102 -31 197 -64 245 -87
177 -83 368 -249 476 -414 35 -54 64 -100 64 -102 0 -3 11 -29 24 -58 32 -73
53 -126 65 -170 6 -21 15 -53 21 -71 65 -216 75 -669 20 -902 -7 -27 -16 -54
-21 -59 -5 -6 -9 -18 -9 -29 0 -32 -85 -198 -145 -282 -31 -44 -82 -106 -113
-138 -57 -59 -174 -157 -187 -157 -3 0 -21 -11 -38 -24 -18 -13 -70 -43 -117
-66 -47 -22 -93 -45 -102 -51 -10 -5 -24 -9 -31 -9 -7 0 -32 -9 -55 -20 -23
-11 -57 -23 -75 -26 -17 -3 -41 -9 -52 -14 -127 -51 -540 -86 -792 -67 -51 4
-93 5 -93 2 0 -2 48 -27 108 -56 59 -28 152 -73 207 -99 222 -106 230 -109
253 -90 9 7 9 7 2 -2 -15 -18 -12 -28 9 -28 11 0 23 -4 26 -10 3 -5 13 -10 22
-10 9 0 13 3 9 7 -4 5 -12 8 -17 8 -5 0 -10 5 -11 10 -2 6 12 11 30 13 17 2
32 8 32 14 0 6 9 8 20 5 10 -3 27 1 37 9 10 7 28 14 41 14 13 0 33 5 44 11 15
8 27 8 45 -2 19 -10 26 -11 32 -1 4 7 23 15 42 17 52 7 93 17 104 25 6 4 29
11 53 15 27 4 42 12 42 21 0 12 4 12 21 3 17 -9 24 -7 40 10 12 13 38 23 69
27 28 4 50 10 50 15 0 4 21 18 46 31 26 12 49 28 51 35 3 7 15 13 26 13 29 0
87 41 87 63 0 9 7 17 16 17 8 0 22 7 31 15 8 9 28 19 44 22 20 4 29 12 29 24
0 11 7 19 15 19 8 0 15 5 15 10 0 6 11 15 25 20 14 5 25 17 25 26 0 17 44 64
61 64 5 0 9 4 9 9 0 6 16 27 35 48 19 21 35 43 35 50 0 7 9 17 20 23 11 6 20
21 20 34 0 13 7 27 16 30 9 4 14 13 10 21 -3 9 2 24 12 35 37 41 44 52 38 65
-7 20 13 75 29 75 15 0 25 22 25 54 0 12 11 33 24 46 31 29 41 73 26 111 -15
35 -7 48 15 25 9 -9 18 -16 20 -16 2 0 1 22 -2 50 -5 43 -3 50 12 50 13 0 16
6 11 24 -4 17 -1 28 10 34 13 7 14 13 5 30 -20 37 -14 62 14 62 14 0 25 -4 25
-10 0 -5 -7 -10 -15 -10 -8 0 -15 -4 -15 -10 0 -15 19 -12 36 4 17 18 18 43 2
49 -9 2 -12 21 -11 51 2 56 10 68 27 43 7 -9 19 -17 25 -17 15 0 41 -25 41
-39 0 -6 7 -11 15 -11 8 0 15 -7 15 -15 0 -8 5 -15 10 -15 6 0 10 7 10 15 0 8
-4 15 -10 15 -5 0 -10 7 -10 15 0 8 7 15 15 15 8 0 15 -7 15 -15 0 -8 5 -15
10 -15 6 0 10 -7 10 -15 0 -8 5 -15 10 -15 6 0 10 11 10 25 0 14 -4 25 -10 25
-5 0 -10 7 -10 16 0 25 44 13 48 -13 2 -13 8 -23 13 -23 5 0 9 -7 9 -15 0 -9
9 -15 25 -15 23 0 25 4 25 40 0 43 5 47 34 25 11 -8 29 -12 43 -9 14 4 23 2
23 -6 0 -18 27 -40 49 -40 12 0 21 5 21 10 0 6 11 10 25 10 16 0 25 6 25 16 0
12 6 15 23 10 12 -3 28 -6 35 -6 6 0 12 -11 12 -25 0 -16 6 -25 15 -25 8 0 15
7 15 15 0 8 8 15 18 15 9 0 26 7 36 15 25 19 36 19 36 0 0 -8 7 -15 15 -15 9
0 15 9 15 25 0 28 7 30 32 11 22 -16 24 -40 3 -32 -9 3 -15 0 -15 -9 0 -22 18
-18 46 10 21 22 34 25 90 25 60 0 68 -3 94 -30 31 -34 40 -37 40 -15 0 8 -4
15 -10 15 -5 0 -10 7 -10 15 0 19 14 19 34 0 19 -19 36 -19 36 0 0 8 5 15 10
15 6 0 13 -7 16 -15 7 -17 44 -21 44 -5 0 6 7 10 15 10 8 0 15 -4 15 -10 0 -5
5 -10 11 -10 14 0 39 25 39 39 0 15 -27 14 -33 -1 -7 -21 -17 -4 -10 20 6 25
43 31 43 7 0 -8 5 -15 10 -15 6 0 10 -11 10 -25 0 -20 5 -25 25 -25 16 0 25 6
25 15 0 8 7 15 15 15 8 0 15 -7 15 -15 0 -10 10 -15 31 -15 17 0 37 -7 45 -15
20 -20 64 -20 64 0 0 10 -11 15 -35 15 -31 0 -35 3 -35 25 0 16 6 25 15 25 8
0 15 -4 15 -9 0 -5 14 -11 30 -13 l30 -5 1 141 c1 78 1 156 0 173 -2 18 2 33
8 33 8 0 11 -173 12 -582 1 -321 2 -599 3 -618 1 -19 4 -226 6 -460 3 -253 7
103 10 880 3 718 5 1991 4 2830 0 1455 -4 1680 -29 1720 -4 7 -11 37 -16 68
-11 76 -25 140 -37 177 -6 17 -16 50 -23 75 -6 25 -18 59 -25 77 -8 17 -14 38
-14 46 0 9 -4 19 -10 22 -5 3 -10 17 -10 30 0 13 -4 27 -10 30 -5 3 -10 14
-10 24 0 10 -7 24 -15 31 -8 7 -15 19 -15 26 0 20 -47 114 -105 212 -28 46
-59 98 -70 117 -45 76 -196 254 -293 344 -99 92 -288 241 -305 241 -5 0 -23
10 -40 23 -44 30 -62 41 -137 79 -36 18 -66 36 -68 41 -2 4 -10 7 -18 7 -14 0
-23 4 -81 34 -17 9 -38 16 -47 16 -16 0 -23 3 -84 33 -19 9 -42 17 -53 17 -11
0 -27 4 -37 9 -36 18 -121 41 -150 41 -17 0 -34 5 -37 10 -3 6 -19 10 -35 10
-16 0 -41 5 -57 11 -30 12 -122 25 -303 40 -145 13 -5463 20 -5770 8z m220
-2480 c181 -20 381 -28 795 -34 237 -3 599 -10 805 -15 557 -14 891 -12 970 5
36 9 107 22 158 30 80 13 98 13 127 1 46 -20 73 -61 56 -88 -8 -13 -9 -24 -2
-31 5 -7 11 -28 13 -47 l3 -35 59 -3 c99 -5 145 -47 146 -135 0 -60 -12 -88
-59 -139 -24 -27 -29 -28 -120 -28 -92 0 -486 -15 -699 -26 -208 -12 -82 -18
319 -15 387 2 411 1 407 -15 -2 -10 -22 -25 -48 -34 -25 -9 -52 -19 -60 -23
-60 -24 -169 -39 -340 -48 l-195 -9 -32 36 c-32 36 -33 37 -75 24 -29 -8 -178
-13 -468 -16 -234 -3 -431 -7 -439 -10 -10 -3 -11 -8 -4 -15 7 -7 133 -12 344
-16 184 -2 336 -7 338 -9 2 -2 2 -6 0 -8 -9 -9 -180 -15 -423 -16 l-259 0 6
-72 c4 -40 9 -103 13 -140 7 -66 6 -68 -20 -78 -26 -9 -26 -12 -20 -62 4 -29
11 -63 15 -76 5 -13 9 -47 9 -76 0 -58 6 -71 27 -55 10 9 13 7 13 -10 0 -12
-5 -29 -11 -39 -8 -13 -9 -51 -4 -128 9 -118 22 -108 24 19 1 91 21 87 21 -5
0 -40 5 -91 11 -113 6 -22 15 -71 19 -110 5 -38 13 -88 19 -110 6 -22 11 -57
11 -77 0 -21 4 -57 9 -80 12 -54 56 -322 80 -493 16 -106 31 -199 41 -243 6
-23 10 -60 10 -81 0 -22 4 -51 10 -65 9 -24 20 -89 40 -241 4 -33 16 -103 25
-155 9 -52 21 -122 25 -155 5 -33 16 -107 24 -165 32 -205 38 -267 43 -397 5
-158 1 -169 -65 -179 -26 -3 -55 -11 -65 -16 -25 -13 -74 -1 -97 24 -12 13
-22 43 -26 80 -9 79 -32 76 -55 -7 -25 -91 -54 -149 -100 -194 -35 -34 -49
-41 -83 -41 -32 0 -47 7 -73 32 -18 18 -33 36 -33 40 0 5 -11 26 -25 48 -14
22 -25 47 -25 55 0 8 -4 23 -9 33 -26 52 -41 96 -41 122 0 16 -4 32 -10 35 -5
3 -10 24 -10 46 0 22 -4 48 -10 58 -12 23 -39 205 -58 382 -4 47 -12 91 -16
97 -4 7 -12 56 -17 110 -11 115 -22 183 -44 272 -9 36 -20 88 -25 115 -4 28
-16 88 -25 135 -22 108 -33 175 -44 275 -5 44 -12 87 -15 95 -4 8 -11 58 -17
110 -6 52 -14 129 -19 170 -50 428 -60 581 -67 972 l-5 337 -52 5 c-28 3 -112
8 -186 11 -306 12 -674 44 -905 79 l-80 12 -3 35 c-6 60 8 134 31 163 19 23
32 28 85 33 34 3 65 9 68 14 2 4 -36 34 -85 66 -102 66 -141 115 -141 176 0
32 7 46 34 72 34 32 48 38 131 54 56 12 322 12 425 0z m-2440 -3213 c0 -3 -4
-8 -10 -11 -5 -3 -10 -1 -10 4 0 6 5 11 10 11 6 0 10 -2 10 -4z m4787 -148
c-3 -8 -6 -5 -6 6 -1 11 2 17 5 13 3 -3 4 -12 1 -19z m2571 -24 c34 -10 28
-31 -8 -26 -17 2 -30 10 -30 18 0 16 5 16 38 8z m1242 -9 c0 -8 -4 -15 -10
-15 -5 0 -10 7 -10 15 0 8 5 15 10 15 6 0 10 -7 10 -15z m-4160 -5 c0 -5 -4
-10 -10 -10 -5 0 -10 5 -10 10 0 6 5 10 10 10 6 0 10 -4 10 -10z m4200 0 c0
-5 -4 -10 -10 -10 -5 0 -10 5 -10 10 0 6 5 10 10 10 6 0 10 -4 10 -10z m-8060
-25 c0 -8 -7 -15 -15 -15 -16 0 -20 12 -8 23 11 12 23 8 23 -8z m870 0 c0 -8
-7 -15 -15 -15 -26 0 -18 20 13 29 1 1 2 -6 2 -14z m280 -6 c0 -5 -7 -9 -15
-9 -8 0 -15 7 -15 15 0 9 6 12 15 9 8 -4 15 -10 15 -15z m440 7 c0 -8 6 -16
13 -19 6 -2 9 -8 5 -12 -8 -9 -38 18 -38 34 0 6 5 11 10 11 6 0 10 -6 10 -14z
m240 -1 c0 -8 -4 -15 -10 -15 -5 0 -10 7 -10 15 0 8 5 15 10 15 6 0 10 -7 10
-15z m730 4 c0 -12 -38 -49 -51 -49 -4 0 -14 3 -23 6 -28 11 -17 24 19 24 24
0 35 5 35 15 0 8 5 15 10 15 6 0 10 -5 10 -11z m2740 2 c0 -5 -9 -11 -20 -14
-22 -6 -28 8 -7 16 19 8 27 8 27 -2z m960 -7 c0 -17 -22 -14 -28 4 -2 7 3 12
12 12 9 0 16 -7 16 -16z m1830 6 c0 -12 -32 -50 -42 -50 -5 0 -8 7 -8 15 0 8
7 15 15 15 8 0 15 7 15 15 0 8 5 15 10 15 6 0 10 -4 10 -10z m730 -1 c0 -27
-36 -45 -82 -41 -33 3 -18 22 17 22 24 0 35 5 35 15 0 8 7 15 15 15 8 0 15 -5
15 -11z m-9260 -25 c0 -8 -10 -14 -25 -14 -15 0 -25 6 -25 14 0 8 10 14 25 14
15 0 25 -6 25 -14z m1810 1 c0 -8 -7 -15 -15 -15 -8 0 -15 7 -15 15 0 8 7 15
15 15 8 0 15 -7 15 -15z m510 0 c0 -8 -4 -15 -10 -15 -5 0 -10 -7 -10 -15 0
-8 5 -15 10 -15 6 0 10 -4 10 -10 0 -5 -7 -10 -15 -10 -8 0 -15 7 -15 15 0 8
-4 15 -10 15 -5 0 -10 5 -10 10 0 6 7 10 15 10 8 0 15 7 15 15 0 8 5 15 10 15
6 0 10 -7 10 -15z m300 0 c0 -8 -7 -15 -15 -15 -8 0 -15 7 -15 15 0 8 7 15 15
15 8 0 15 -7 15 -15z m3340 0 c0 -8 -4 -15 -10 -15 -5 0 -10 7 -10 15 0 8 5
15 10 15 6 0 10 -7 10 -15z m290 0 c0 -8 -9 -15 -20 -15 -11 0 -20 7 -20 15 0
8 9 15 20 15 11 0 20 -7 20 -15z m2330 0 c0 -8 -7 -15 -15 -15 -8 0 -15 -5
-15 -10 0 -6 7 -13 15 -16 8 -4 15 -10 15 -15 0 -5 -7 -9 -15 -9 -8 0 -15 6
-15 14 0 8 -5 16 -12 18 -7 3 -5 12 8 26 22 26 34 28 34 7z m290 0 c0 -8 -4
-15 -10 -15 -5 0 -10 7 -10 15 0 8 5 15 10 15 6 0 10 -7 10 -15z m760 0 c0 -8
-7 -15 -15 -15 -8 0 -15 7 -15 15 0 8 7 15 15 15 8 0 15 -7 15 -15z m-9580 -5
c0 -5 -7 -10 -15 -10 -8 0 -15 5 -15 10 0 6 7 10 15 10 8 0 15 -4 15 -10z
m1420 0 c0 -5 -7 -10 -15 -10 -8 0 -15 5 -15 10 0 6 7 10 15 10 8 0 15 -4 15
-10z m440 0 c0 -5 -7 -10 -15 -10 -8 0 -15 5 -15 10 0 6 7 10 15 10 8 0 15 -4
15 -10z m930 0 c0 -5 -7 -10 -15 -10 -8 0 -15 5 -15 10 0 6 7 10 15 10 8 0 15
-4 15 -10z m220 -5 c0 -8 -7 -15 -15 -15 -8 0 -15 7 -15 15 0 8 7 15 15 15 8
0 15 -7 15 -15z m2710 5 c0 -5 -7 -10 -15 -10 -8 0 -15 5 -15 10 0 6 7 10 15
10 8 0 15 -4 15 -10z m50 0 c0 -5 -7 -10 -15 -10 -8 0 -15 5 -15 10 0 6 7 10
15 10 8 0 15 -4 15 -10z m490 0 c0 -5 -7 -10 -15 -10 -8 0 -15 5 -15 10 0 6 7
10 15 10 8 0 15 -4 15 -10z m2780 0 c0 -5 -4 -10 -10 -10 -5 0 -10 5 -10 10 0
6 5 10 10 10 6 0 10 -4 10 -10z m440 0 c0 -5 -4 -10 -10 -10 -5 0 -10 5 -10
10 0 6 5 10 10 10 6 0 10 -4 10 -10z m-9390 -25 c0 -8 -4 -15 -10 -15 -5 0
-10 7 -10 15 0 8 5 15 10 15 6 0 10 -7 10 -15z m180 -1 c0 -17 -22 -14 -28 4
-2 7 3 12 12 12 9 0 16 -7 16 -16z m340 1 c0 -8 -9 -15 -20 -15 -11 0 -20 7
-20 15 0 8 9 15 20 15 11 0 20 -7 20 -15z m50 5 c0 -5 -7 -10 -15 -10 -8 0
-15 5 -15 10 0 6 7 10 15 10 8 0 15 -4 15 -10z m226 -4 c16 -16 19 -86 4 -86
-5 0 -10 11 -10 24 0 14 -7 31 -15 40 -8 8 -15 19 -15 25 0 15 19 14 36 -3z
m144 -1 c0 -8 -7 -15 -15 -15 -8 0 -15 7 -15 15 0 8 7 15 15 15 8 0 15 -7 15
-15z m120 5 c0 -5 -4 -10 -10 -10 -5 0 -10 5 -10 10 0 6 5 10 10 10 6 0 10 -4
10 -10z m170 -5 c0 -8 -7 -15 -15 -15 -8 0 -15 7 -15 15 0 8 7 15 15 15 8 0
15 -7 15 -15z m320 0 c0 -8 -7 -15 -15 -15 -8 0 -15 7 -15 15 0 8 7 15 15 15
8 0 15 -7 15 -15z m410 0 c0 -8 -4 -15 -10 -15 -5 0 -10 7 -10 15 0 8 5 15 10
15 6 0 10 -7 10 -15z m780 4 c0 -6 -6 -17 -14 -25 -17 -16 -36 -19 -36 -4 0 6
7 10 15 10 8 0 15 7 15 15 0 8 5 15 10 15 6 0 10 -5 10 -11z m3520 -5 c0 -17
-22 -14 -28 4 -2 7 3 12 12 12 9 0 16 -7 16 -16z m180 1 c0 -8 -7 -15 -15 -15
-8 0 -15 7 -15 15 0 8 7 15 15 15 8 0 15 -7 15 -15z m340 0 c0 -9 -9 -15 -25
-15 -14 0 -25 -4 -25 -10 0 -5 5 -10 10 -10 6 0 10 -11 10 -25 0 -14 -4 -25
-10 -25 -5 0 -10 11 -10 25 0 16 -6 25 -15 25 -8 0 -15 5 -15 10 0 6 7 10 15
10 8 0 15 7 15 15 0 9 9 15 25 15 16 0 25 -6 25 -15z m50 5 c0 -5 -7 -10 -15
-10 -8 0 -15 5 -15 10 0 6 7 10 15 10 8 0 15 -4 15 -10z m226 -4 c19 -20 19
-86 -1 -86 -10 0 -15 11 -15 35 0 19 -4 35 -10 35 -5 0 -10 7 -10 15 0 19 17
19 36 1z m1944 3 c0 -14 -25 -39 -39 -39 -6 0 -11 5 -11 10 0 6 7 10 15 10 8
0 15 7 15 15 0 8 5 15 10 15 6 0 10 -5 10 -11z m690 -4 c0 -8 -7 -15 -15 -15
-8 0 -15 7 -15 15 0 8 7 15 15 15 8 0 15 -7 15 -15z m-9360 -20 c0 -8 -7 -15
-15 -15 -8 0 -15 7 -15 15 0 8 7 15 15 15 8 0 15 -7 15 -15z m410 0 c0 -8 -7
-15 -15 -15 -8 0 -15 7 -15 15 0 8 7 15 15 15 8 0 15 -7 15 -15z m760 0 c0 -8
-7 -15 -15 -15 -8 0 -15 7 -15 15 0 8 7 15 15 15 8 0 15 -7 15 -15z m270 0 c0
-8 -7 -15 -15 -15 -8 0 -15 7 -15 15 0 8 7 15 15 15 8 0 15 -7 15 -15z m1170
0 c0 -8 -7 -15 -15 -15 -8 0 -15 7 -15 15 0 8 7 15 15 15 8 0 15 -7 15 -15z
m3640 0 c0 -8 -7 -15 -15 -15 -8 0 -15 7 -15 15 0 8 7 15 15 15 8 0 15 -7 15
-15z m420 0 c0 -8 -7 -15 -15 -15 -8 0 -15 7 -15 15 0 8 7 15 15 15 8 0 15 -7
15 -15z m-6530 -5 c0 -5 7 -10 15 -10 9 0 15 -9 15 -25 0 -16 -6 -25 -15 -25
-9 0 -15 9 -15 25 0 16 -6 25 -15 25 -8 0 -15 5 -15 10 0 6 7 10 15 10 8 0 15
-4 15 -10z m3960 0 c0 -5 -7 -10 -15 -10 -8 0 -15 5 -15 10 0 6 7 10 15 10 8
0 15 -4 15 -10z m2690 0 c0 -5 -7 -10 -15 -10 -8 0 -15 5 -15 10 0 6 7 10 15
10 8 0 15 -4 15 -10z m40 0 c0 -5 -4 -10 -10 -10 -5 0 -10 5 -10 10 0 6 5 10
10 10 6 0 10 -4 10 -10z m-5300 -20 c0 -5 -4 -10 -10 -10 -5 0 -10 5 -10 10 0
6 5 10 10 10 6 0 10 -4 10 -10z m4140 -5 c0 -8 -7 -15 -15 -15 -8 0 -15 7 -15
15 0 8 7 15 15 15 8 0 15 -7 15 -15z m-4650 -20 c0 -8 -4 -15 -10 -15 -5 0
-10 7 -10 15 0 8 5 15 10 15 6 0 10 -7 10 -15z m980 0 c0 -8 -7 -15 -15 -15
-8 0 -15 7 -15 15 0 8 7 15 15 15 8 0 15 -7 15 -15z m3320 0 c0 -8 -4 -15 -10
-15 -5 0 -10 7 -10 15 0 8 5 15 10 15 6 0 10 -7 10 -15z m1150 0 c0 -8 -4 -15
-10 -15 -5 0 -10 7 -10 15 0 8 5 15 10 15 6 0 10 -7 10 -15z m1790 0 c0 -8 -7
-15 -15 -15 -8 0 -15 7 -15 15 0 8 7 15 15 15 8 0 15 -7 15 -15z m-1340 -70
c0 -8 -4 -15 -10 -15 -5 0 -7 7 -4 15 4 8 8 15 10 15 2 0 4 -7 4 -15z m-3310
-725 c0 -5 -4 -10 -10 -10 -5 0 -10 5 -10 10 0 6 5 10 10 10 6 0 10 -4 10 -10z"/>
<path d="M5303 7553 c9 -2 23 -2 30 0 6 3 -1 5 -18 5 -16 0 -22 -2 -12 -5z"/>
<path d="M4270 7510 c0 -6 45 -10 116 -10 74 0 113 4 109 10 -4 6 -53 10 -116
10 -66 0 -109 -4 -109 -10z"/>
<path d="M3715 7020 c3 -5 8 -10 11 -10 2 0 4 5 4 10 0 6 -5 10 -11 10 -5 0
-7 -4 -4 -10z"/>
<path d="M3694 6878 c4 -51 9 -104 10 -118 2 -14 7 -69 11 -123 14 -196 24
-151 19 83 -4 129 -8 238 -11 243 -2 4 -11 7 -20 7 -14 0 -15 -12 -9 -92z"/>
<path d="M3741 6393 c1 -90 17 -113 18 -26 1 39 -3 75 -9 78 -6 4 -10 -16 -9
-52z"/>
<path d="M3771 6134 c0 -11 3 -14 6 -6 3 7 2 16 -1 19 -3 4 -6 -2 -5 -13z"/>
<path d="M3885 6003 c7 -105 39 -453 54 -593 5 -47 20 -132 32 -190 32 -154
53 -161 28 -10 -15 92 -41 307 -69 562 -6 53 -14 127 -19 165 -4 37 -6 74 -4
81 8 19 -7 82 -18 82 -7 0 -9 -32 -4 -97z"/>
<path d="M4010 5063 c0 -17 5 -35 10 -38 13 -8 13 35 0 55 -7 11 -10 7 -10
-17z"/>
<path d="M7680 4508 c0 -16 5 -28 10 -28 13 0 13 20 0 40 -8 12 -10 9 -10 -12z"/>
<path d="M7704 4267 c1 -131 -2 -163 -23 -237 -13 -47 -38 -107 -56 -135 -45
-72 -47 -75 -42 -75 11 0 74 99 90 140 31 84 47 189 47 313 0 67 -4 128 -8
134 -5 7 -8 -56 -8 -140z"/>
<path d="M200 4145 c0 -8 5 -15 10 -15 6 0 10 7 10 15 0 8 -4 15 -10 15 -5 0
-10 -7 -10 -15z"/>
<path d="M6450 4145 c0 -8 7 -15 15 -15 8 0 15 7 15 15 0 8 -7 15 -15 15 -8 0
-15 -7 -15 -15z"/>
<path d="M2470 4140 c0 -5 -7 -10 -15 -10 -8 0 -15 -7 -15 -15 0 -8 7 -15 15
-15 8 0 15 7 15 15 0 8 5 15 10 15 6 0 10 5 10 10 0 6 -4 10 -10 10 -5 0 -10
-4 -10 -10z"/>
<path d="M8720 4140 c0 -5 7 -10 15 -10 8 0 15 5 15 10 0 6 -7 10 -15 10 -8 0
-15 -4 -15 -10z"/>
<path d="M610 4125 c0 -8 7 -15 15 -15 8 0 15 7 15 15 0 8 -7 15 -15 15 -8 0
-15 -7 -15 -15z"/>
<path d="M6870 4125 c0 -8 5 -15 10 -15 6 0 10 7 10 15 0 8 -4 15 -10 15 -5 0
-10 -7 -10 -15z"/>
<path d="M1950 4115 c0 -8 7 -15 15 -15 8 0 15 7 15 15 0 8 -7 15 -15 15 -8 0
-15 -7 -15 -15z"/>
<path d="M3250 4115 c0 -8 5 -15 10 -15 6 0 10 7 10 15 0 8 -4 15 -10 15 -5 0
-10 -7 -10 -15z"/>
<path d="M9040 4115 c0 -8 7 -15 15 -15 8 0 15 7 15 15 0 8 -7 15 -15 15 -8 0
-15 -7 -15 -15z"/>
<path d="M9500 4115 c0 -8 7 -15 15 -15 8 0 15 7 15 15 0 8 -7 15 -15 15 -8 0
-15 -7 -15 -15z"/>
<path d="M9560 4115 c0 -8 5 -15 10 -15 6 0 10 7 10 15 0 8 -4 15 -10 15 -5 0
-10 -7 -10 -15z"/>
<path d="M9600 4121 c0 -6 5 -13 10 -16 6 -3 10 1 10 9 0 9 -4 16 -10 16 -5 0
-10 -4 -10 -9z"/>
<path d="M7530 4040 c0 -5 5 -10 10 -10 6 0 10 -7 10 -16 0 -8 5 -12 10 -9 19
12 11 45 -10 45 -11 0 -20 -4 -20 -10z"/>
<path d="M7456 3805 c-3 -8 -12 -15 -21 -15 -8 0 -15 -4 -15 -10 0 -16 12 -11
45 15 21 18 25 25 14 25 -9 0 -19 -7 -23 -15z"/>
<path d="M7395 3760 c-3 -5 -1 -10 4 -10 6 0 11 5 11 10 0 6 -2 10 -4 10 -3 0
-8 -4 -11 -10z"/>
<path d="M7345 3730 c4 -6 11 -8 16 -5 14 9 11 15 -7 15 -8 0 -12 -5 -9 -10z"/>
<path d="M7295 3710 c-3 -5 1 -10 9 -10 8 0 18 5 21 10 3 6 -1 10 -9 10 -8 0
-18 -4 -21 -10z"/>
<path d="M7228 3678 c9 -9 15 -9 24 0 9 9 7 12 -12 12 -19 0 -21 -3 -12 -12z"/>
<path d="M7110 3660 c0 -5 16 -10 35 -10 19 0 35 5 35 10 0 6 -16 10 -35 10
-19 0 -35 -4 -35 -10z"/>
<path d="M6548 3633 c12 -2 30 -2 40 0 9 3 -1 5 -23 4 -22 0 -30 -2 -17 -4z"/>
<path d="M6818 3633 c46 -2 118 -2 160 0 42 1 5 3 -83 3 -88 0 -123 -2 -77 -3z"/>
<path d="M4787 3613 c-11 -11 -8 -193 3 -193 6 0 10 40 10 100 0 100 -1 106
-13 93z"/>
<path d="M4854 3425 c0 -60 1 -84 3 -52 2 32 2 81 0 110 -2 29 -3 3 -3 -58z"/>
<path d="M5860 3459 c-14 -4 83 -7 215 -7 174 1 222 3 175 9 -77 10 -354 8
-390 -2z"/>
<path d="M6343 3453 c9 -2 23 -2 30 0 6 3 -1 5 -18 5 -16 0 -22 -2 -12 -5z"/>
<path d="M6423 3453 c9 -2 23 -2 30 0 6 3 -1 5 -18 5 -16 0 -22 -2 -12 -5z"/>
<path d="M4761 3212 c-1 -93 2 -141 9 -137 12 7 12 183 1 240 -6 29 -9 0 -10
-103z"/>
<path d="M5520 3274 c0 -8 5 -12 10 -9 6 4 8 11 5 16 -9 14 -15 11 -15 -7z"/>
<path d="M5500 3224 c0 -8 5 -12 10 -9 6 3 10 10 10 16 0 5 -4 9 -10 9 -5 0
-10 -7 -10 -16z"/>
<path d="M4838 3195 c-4 -22 -7 -76 -7 -120 1 -73 2 -76 10 -40 6 22 8 76 7
120 -3 69 -4 74 -10 40z"/>
<path d="M5484 3024 c5 -24 3 -33 -8 -37 -10 -4 -16 -19 -16 -39 0 -18 -6 -64
-14 -103 -26 -121 -49 -701 -30 -749 17 -45 24 2 26 177 1 105 4 159 5 120 4
-72 23 -104 23 -40 1 46 25 130 38 135 7 2 12 14 12 27 0 14 7 26 19 30 11 3
22 12 25 20 3 8 12 15 21 15 16 0 21 15 8 23 -5 2 -1 1 7 -1 25 -9 64 -4 68 7
5 14 19 14 35 1 46 -38 75 -59 97 -71 25 -13 31 -15 50 -18 6 0 10 -12 10 -26
0 -17 4 -23 14 -19 8 3 22 -3 32 -14 11 -11 34 -27 52 -36 17 -9 32 -21 32
-26 0 -6 9 -10 20 -10 11 0 24 -8 27 -17 4 -10 14 -25 24 -33 44 -38 59 -49
59 -45 0 3 9 1 20 -5 11 -6 20 -17 20 -25 0 -8 3 -14 8 -14 24 4 42 -3 42 -16
0 -8 11 -17 25 -21 14 -3 25 -10 25 -14 0 -4 12 -13 28 -18 15 -6 40 -22 55
-36 16 -13 35 -22 43 -19 7 3 20 -1 28 -9 36 -32 46 -38 65 -38 10 0 22 -7 25
-16 5 -12 14 -15 34 -11 21 4 33 0 45 -14 12 -14 24 -18 42 -13 19 5 25 2 25
-11 0 -11 6 -15 19 -10 26 8 51 -4 51 -26 0 -21 16 -26 22 -7 2 6 10 8 17 4 7
-5 10 -15 7 -23 -5 -11 0 -13 22 -9 20 5 31 2 42 -14 8 -12 31 -23 53 -27 22
-3 44 -14 50 -24 7 -12 23 -19 42 -19 16 0 42 -7 58 -14 25 -14 27 -13 27 4 0
13 5 17 21 13 13 -4 17 -8 9 -13 -7 -4 -2 -13 14 -24 28 -18 56 -21 100 -10
21 5 27 4 22 -5 -4 -6 -17 -11 -28 -11 -12 0 -18 -3 -15 -7 4 -3 25 -6 47 -5
30 1 38 -1 34 -12 -4 -11 3 -13 37 -9 37 5 41 4 36 -10 -5 -14 0 -17 24 -17
18 0 28 -4 24 -10 -4 -6 8 -10 30 -10 20 0 43 -7 52 -16 17 -16 58 -16 58 1 0
6 -11 12 -24 13 -14 2 -35 11 -47 19 -13 8 -27 12 -32 9 -6 -3 -15 1 -22 9 -7
8 -23 15 -35 15 -12 0 -28 7 -35 15 -7 8 -19 15 -26 15 -14 0 -96 34 -124 51
-8 5 -22 12 -30 15 -8 3 -27 12 -41 20 -14 7 -28 11 -31 8 -3 -2 -11 2 -18 11
-7 8 -21 15 -31 15 -11 0 -19 5 -19 10 0 6 -8 10 -19 10 -10 0 -24 7 -31 15
-7 8 -18 15 -26 15 -7 0 -34 11 -60 25 -26 14 -53 25 -60 25 -7 0 -14 3 -16 8
-1 4 -32 22 -68 40 -36 19 -87 47 -115 63 -27 15 -57 31 -65 35 -32 13 -77 36
-125 64 -27 15 -70 39 -95 53 -119 65 -146 80 -157 89 -7 5 -27 17 -45 27 -55
28 -81 45 -107 69 -14 12 -29 22 -33 22 -14 0 -8 33 8 44 13 10 3 20 -63 68
-78 56 -116 87 -202 163 -25 22 -55 47 -65 55 -18 14 -18 14 -8 -5 12 -22 180
-185 191 -185 9 0 41 -38 41 -50 0 -6 7 -10 15 -10 8 0 15 -4 15 -10 0 -13 -3
-13 -35 4 -72 38 -268 225 -335 321 -25 36 -48 65 -52 65 -14 0 -9 32 7 44 12
9 11 15 -7 36 l-21 25 7 -31z m1563 -1140 c-3 -3 -12 -4 -19 -1 -8 3 -5 6 6 6
11 1 17 -2 13 -5z m110 -50 c-3 -3 -12 -4 -19 -1 -8 3 -5 6 6 6 11 1 17 -2 13
-5z"/>
<path d="M7155 2620 c3 -5 10 -10 16 -10 5 0 9 5 9 10 0 6 -7 10 -16 10 -8 0
-12 -4 -9 -10z"/>
<path d="M41 2434 c0 -11 3 -14 6 -6 3 7 2 16 -1 19 -3 4 -6 -2 -5 -13z"/>
<path d="M10191 2314 c0 -11 3 -14 6 -6 3 7 2 16 -1 19 -3 4 -6 -2 -5 -13z"/>
<path d="M7018 2113 c7 -3 16 -2 19 1 4 3 -2 6 -13 5 -11 0 -14 -3 -6 -6z"/>
<path d="M7070 2090 c0 -5 5 -10 11 -10 5 0 7 5 4 10 -3 6 -8 10 -11 10 -2 0
-4 -4 -4 -10z"/>
<path d="M7110 2075 c0 -4 55 -36 235 -135 33 -18 81 -48 108 -66 26 -19 50
-34 53 -34 7 0 66 -43 118 -87 22 -18 46 -33 53 -33 7 0 13 -7 13 -15 0 -8 5
-15 10 -15 6 0 10 -9 10 -20 0 -21 -24 -28 -35 -10 -3 6 -19 10 -35 10 -16 0
-32 5 -35 10 -3 6 -22 10 -41 10 -19 0 -34 -4 -34 -10 0 -5 18 -10 41 -10 22
0 38 -4 35 -9 -3 -5 12 -11 33 -15 22 -3 41 -12 44 -18 3 -10 9 -8 24 5 21 18
35 14 26 -9 -4 -10 0 -12 11 -8 9 3 16 1 16 -5 0 -6 7 -11 15 -11 19 0 -53
102 -98 140 -16 14 -44 37 -61 52 -17 15 -36 28 -43 28 -6 0 -13 4 -15 8 -4
11 -129 88 -208 130 -202 106 -240 125 -240 117z"/>
<path d="M5440 2051 c0 -11 5 -23 10 -26 6 -3 10 3 10 14 0 11 -4 23 -10 26
-5 3 -10 -3 -10 -14z"/>
<path d="M5460 2001 c0 -6 5 -13 10 -16 6 -3 10 1 10 9 0 9 -4 16 -10 16 -5 0
-10 -4 -10 -9z"/>
<path d="M5493 1890 c0 -30 2 -43 4 -27 2 15 2 39 0 55 -2 15 -4 2 -4 -28z"/>
<path d="M5380 1760 c0 -5 12 -10 26 -10 14 0 23 4 19 10 -3 6 -15 10 -26 10
-10 0 -19 -4 -19 -10z"/>
<path d="M5326 1737 c-16 -12 -16 -14 -2 -26 17 -14 23 -106 8 -113 -4 -1 -18
-20 -31 -40 -12 -21 -27 -38 -32 -38 -5 0 -9 -4 -9 -10 0 -18 25 -11 40 11 8
12 21 27 28 35 6 7 12 19 12 27 0 9 5 17 11 19 5 2 11 27 11 56 1 28 5 52 10
52 15 0 8 28 -8 34 -20 8 -17 8 -38 -7z"/>
<path d="M5000 1616 c0 -14 5 -26 10 -26 6 0 10 9 10 19 0 11 -4 23 -10 26 -6
4 -10 -5 -10 -19z"/>
<path d="M7802 1593 c-19 -7 -4 -23 24 -23 27 0 32 15 8 24 -9 3 -16 6 -17 5
-1 0 -8 -3 -15 -6z"/>
<path d="M5030 1564 c0 -8 5 -12 10 -9 6 4 8 11 5 16 -9 14 -15 11 -15 -7z"/>
<path d="M7860 1560 c0 -5 7 -10 15 -10 8 0 15 5 15 10 0 6 -7 10 -15 10 -8 0
-15 -4 -15 -10z"/>
<path d="M7910 1540 c0 -5 10 -10 23 -10 18 0 19 2 7 10 -19 13 -30 13 -30 0z"/>
<path d="M5085 1510 c3 -5 11 -10 16 -10 6 0 7 5 4 10 -3 6 -11 10 -16 10 -6
0 -7 -4 -4 -10z"/>
<path d="M7980 1510 c0 -5 7 -10 15 -10 8 0 15 5 15 10 0 6 -7 10 -15 10 -8 0
-15 -4 -15 -10z"/>
<path d="M5135 1490 c-17 -6 -14 -9 17 -15 40 -8 98 1 98 16 0 11 -87 11 -115
-1z"/>
</g>
</svg>
